# xmcd
#
# Track frame offsets:
#	150
#	35947
#	53322
#	69257
#	90287
#	109117
#	123890
#	144997
#	156470
#	184862
#	195975
#	211307
#	230000
#	248790
#	263297
#	282435
#
# Disc length: 4198 seconds
#
# Revision: 1
# Processed by: cddbd v1.5.2PL0 Copyright (c) Steve Scherf et al.
# Submitted via: audiograbber 1.83.01
#
DISCID=d6106410
DTITLE=Scuttle buttin' - A tribute to Stevie Ray Vaughan
DYEAR=1900
DGENRE=Blues
TTITLE0=Tin pan alley
TTITLE1=Mary had a little lamb
TTITLE2=Empty arms
TTITLE3=Couldn't stand the weather
TTITLE4=Tightrope
TTITLE5=Shake for me
TTITLE6=Lenny
TTITLE7=Honey bee
TTITLE8=Texas flood
TTITLE9=Love struck baby
TTITLE10=Telephone song
TTITLE11=Come on
TTITLE12=Cold shot
TTITLE13=Long way from home
TTITLE14=Rude mood
TTITLE15=Voodoo chile
EXTD=
EXTT0=
EXTT1=
EXTT2=
EXTT3=
EXTT4=
EXTT5=
EXTT6=
EXTT7=
EXTT8=
EXTT9=
EXTT10=
EXTT11=
EXTT12=
EXTT13=
EXTT14=
EXTT15=
PLAYORDER=
